<mxfile host="app.diagrams.net" modified="2023-05-18T20:33:43.297Z" agent="Mozilla/5.0 (Windows NT 10.0; Win64; x64) AppleWebKit/537.36 (KHTML, like Gecko) Chrome/113.0.0.0 Safari/537.36" etag="ZO8trX-JPIHPxqhveej_" version="21.3.2" type="device">
  <diagram name="Sayfa -1" id="HzW6GRurwJa8bZB18bkU">
    <mxGraphModel dx="3000" dy="1900" grid="1" gridSize="10" guides="1" tooltips="1" connect="1" arrows="1" fold="1" page="1" pageScale="1" pageWidth="827" pageHeight="1169" math="0" shadow="0">
      <root>
        <mxCell id="0" />
        <mxCell id="1" parent="0" />
        <mxCell id="hoALELuz9ehoLUfIYg6b-46" value="" style="shape=cylinder3;whiteSpace=wrap;html=1;boundedLbl=1;backgroundOutline=1;size=15;" vertex="1" parent="1">
          <mxGeometry x="1310" y="160" width="570" height="500" as="geometry" />
        </mxCell>
        <mxCell id="hoALELuz9ehoLUfIYg6b-59" value="" style="rounded=1;whiteSpace=wrap;html=1;" vertex="1" parent="1">
          <mxGeometry x="1580" y="210" width="260" height="430" as="geometry" />
        </mxCell>
        <mxCell id="hoALELuz9ehoLUfIYg6b-68" value="" style="rounded=1;whiteSpace=wrap;html=1;" vertex="1" parent="1">
          <mxGeometry x="1590" y="280" width="240" height="130" as="geometry" />
        </mxCell>
        <mxCell id="hoALELuz9ehoLUfIYg6b-6" value="" style="endArrow=none;html=1;rounded=0;" edge="1" parent="1">
          <mxGeometry width="50" height="50" relative="1" as="geometry">
            <mxPoint x="120" y="290" as="sourcePoint" />
            <mxPoint x="120" y="130" as="targetPoint" />
            <Array as="points">
              <mxPoint x="210" y="210" />
            </Array>
          </mxGeometry>
        </mxCell>
        <mxCell id="hoALELuz9ehoLUfIYg6b-7" value="" style="endArrow=none;html=1;rounded=0;" edge="1" parent="1">
          <mxGeometry width="50" height="50" relative="1" as="geometry">
            <mxPoint x="110" y="160" as="sourcePoint" />
            <mxPoint x="110" y="270" as="targetPoint" />
            <Array as="points">
              <mxPoint x="210" y="210" />
            </Array>
          </mxGeometry>
        </mxCell>
        <mxCell id="hoALELuz9ehoLUfIYg6b-10" value="" style="rounded=0;whiteSpace=wrap;html=1;" vertex="1" parent="1">
          <mxGeometry x="214" y="130" width="626" height="450" as="geometry" />
        </mxCell>
        <mxCell id="hoALELuz9ehoLUfIYg6b-11" value="ARTSEE - APP" style="text;html=1;strokeColor=none;fillColor=none;align=center;verticalAlign=middle;whiteSpace=wrap;rounded=0;" vertex="1" parent="1">
          <mxGeometry x="214" y="130" width="90" height="30" as="geometry" />
        </mxCell>
        <mxCell id="hoALELuz9ehoLUfIYg6b-18" value="" style="triangle;whiteSpace=wrap;html=1;" vertex="1" parent="1">
          <mxGeometry x="340" y="170" width="100" height="80" as="geometry" />
        </mxCell>
        <mxCell id="hoALELuz9ehoLUfIYg6b-20" value="" style="endArrow=classic;html=1;rounded=0;entryX=0;entryY=0.5;entryDx=0;entryDy=0;" edge="1" parent="1" target="hoALELuz9ehoLUfIYg6b-18">
          <mxGeometry width="50" height="50" relative="1" as="geometry">
            <mxPoint x="230" y="210" as="sourcePoint" />
            <mxPoint x="310" y="200" as="targetPoint" />
          </mxGeometry>
        </mxCell>
        <mxCell id="hoALELuz9ehoLUfIYg6b-21" value="IMAGE.JPG" style="text;html=1;strokeColor=none;fillColor=none;align=center;verticalAlign=middle;whiteSpace=wrap;rounded=0;" vertex="1" parent="1">
          <mxGeometry x="244" y="170" width="60" height="30" as="geometry" />
        </mxCell>
        <mxCell id="hoALELuz9ehoLUfIYg6b-22" value="CONVERTER" style="text;html=1;strokeColor=none;fillColor=none;align=center;verticalAlign=middle;whiteSpace=wrap;rounded=0;" vertex="1" parent="1">
          <mxGeometry x="350" y="195" width="60" height="30" as="geometry" />
        </mxCell>
        <mxCell id="hoALELuz9ehoLUfIYg6b-25" value="" style="rounded=1;whiteSpace=wrap;html=1;" vertex="1" parent="1">
          <mxGeometry x="570" y="180" width="120" height="60" as="geometry" />
        </mxCell>
        <mxCell id="hoALELuz9ehoLUfIYg6b-26" value="" style="endArrow=classic;html=1;rounded=0;entryX=0;entryY=0.5;entryDx=0;entryDy=0;exitX=1;exitY=0.5;exitDx=0;exitDy=0;" edge="1" parent="1" source="hoALELuz9ehoLUfIYg6b-18" target="hoALELuz9ehoLUfIYg6b-25">
          <mxGeometry width="50" height="50" relative="1" as="geometry">
            <mxPoint x="380" y="260" as="sourcePoint" />
            <mxPoint x="430" y="210" as="targetPoint" />
          </mxGeometry>
        </mxCell>
        <mxCell id="hoALELuz9ehoLUfIYg6b-27" value="YOLO" style="text;html=1;strokeColor=none;fillColor=none;align=center;verticalAlign=middle;whiteSpace=wrap;rounded=0;" vertex="1" parent="1">
          <mxGeometry x="590" y="195" width="80" height="30" as="geometry" />
        </mxCell>
        <mxCell id="hoALELuz9ehoLUfIYg6b-28" value="NUMPY ARRAY" style="text;html=1;strokeColor=none;fillColor=none;align=center;verticalAlign=middle;whiteSpace=wrap;rounded=0;" vertex="1" parent="1">
          <mxGeometry x="470" y="170" width="60" height="30" as="geometry" />
        </mxCell>
        <mxCell id="hoALELuz9ehoLUfIYg6b-30" value="" style="shape=flexArrow;endArrow=classic;html=1;rounded=0;" edge="1" parent="1">
          <mxGeometry width="50" height="50" relative="1" as="geometry">
            <mxPoint x="100" y="330" as="sourcePoint" />
            <mxPoint x="210" y="330" as="targetPoint" />
          </mxGeometry>
        </mxCell>
        <mxCell id="hoALELuz9ehoLUfIYg6b-31" value="" style="endArrow=classic;html=1;rounded=0;exitX=1;exitY=0.5;exitDx=0;exitDy=0;" edge="1" parent="1" source="hoALELuz9ehoLUfIYg6b-36">
          <mxGeometry width="50" height="50" relative="1" as="geometry">
            <mxPoint x="460" y="260" as="sourcePoint" />
            <mxPoint x="150" y="330" as="targetPoint" />
            <Array as="points">
              <mxPoint x="150" y="290" />
            </Array>
          </mxGeometry>
        </mxCell>
        <mxCell id="hoALELuz9ehoLUfIYg6b-32" value="if len(index) &amp;gt; 1; input requiered" style="text;html=1;strokeColor=none;fillColor=none;align=center;verticalAlign=middle;whiteSpace=wrap;rounded=0;" vertex="1" parent="1">
          <mxGeometry x="220" y="260" width="180" height="30" as="geometry" />
        </mxCell>
        <mxCell id="hoALELuz9ehoLUfIYg6b-33" value="PHOTO TAKEN" style="text;html=1;strokeColor=none;fillColor=none;align=center;verticalAlign=middle;whiteSpace=wrap;rounded=0;" vertex="1" parent="1">
          <mxGeometry x="40" y="195" width="60" height="30" as="geometry" />
        </mxCell>
        <mxCell id="hoALELuz9ehoLUfIYg6b-34" value="INDEX INPUT" style="text;html=1;strokeColor=none;fillColor=none;align=center;verticalAlign=middle;whiteSpace=wrap;rounded=0;" vertex="1" parent="1">
          <mxGeometry x="40" y="320" width="60" height="30" as="geometry" />
        </mxCell>
        <mxCell id="hoALELuz9ehoLUfIYg6b-37" value="" style="endArrow=classic;html=1;rounded=0;exitX=0.5;exitY=1;exitDx=0;exitDy=0;" edge="1" parent="1" source="hoALELuz9ehoLUfIYg6b-25" target="hoALELuz9ehoLUfIYg6b-36">
          <mxGeometry width="50" height="50" relative="1" as="geometry">
            <mxPoint x="630" y="240" as="sourcePoint" />
            <mxPoint x="150" y="330" as="targetPoint" />
            <Array as="points">
              <mxPoint x="630" y="290" />
            </Array>
          </mxGeometry>
        </mxCell>
        <mxCell id="hoALELuz9ehoLUfIYg6b-36" value="" style="triangle;whiteSpace=wrap;html=1;rotation=-180;" vertex="1" parent="1">
          <mxGeometry x="410" y="250" width="90" height="80" as="geometry" />
        </mxCell>
        <mxCell id="hoALELuz9ehoLUfIYg6b-38" value="CROPPER" style="text;html=1;strokeColor=none;fillColor=none;align=center;verticalAlign=middle;whiteSpace=wrap;rounded=0;" vertex="1" parent="1">
          <mxGeometry x="440" y="275" width="50" height="30" as="geometry" />
        </mxCell>
        <mxCell id="hoALELuz9ehoLUfIYg6b-39" value="" style="rounded=1;whiteSpace=wrap;html=1;" vertex="1" parent="1">
          <mxGeometry x="620" y="330" width="120" height="60" as="geometry" />
        </mxCell>
        <mxCell id="hoALELuz9ehoLUfIYg6b-40" value="" style="endArrow=classic;html=1;rounded=0;entryX=0;entryY=0.5;entryDx=0;entryDy=0;" edge="1" parent="1" target="hoALELuz9ehoLUfIYg6b-39">
          <mxGeometry width="50" height="50" relative="1" as="geometry">
            <mxPoint x="230" y="332" as="sourcePoint" />
            <mxPoint x="360" y="320" as="targetPoint" />
            <Array as="points">
              <mxPoint x="270" y="332" />
              <mxPoint x="270" y="360" />
            </Array>
          </mxGeometry>
        </mxCell>
        <mxCell id="hoALELuz9ehoLUfIYg6b-42" value="" style="endArrow=classic;html=1;rounded=0;exitX=0;exitY=0.5;exitDx=0;exitDy=0;entryX=0;entryY=0.5;entryDx=0;entryDy=0;" edge="1" parent="1" source="hoALELuz9ehoLUfIYg6b-36" target="hoALELuz9ehoLUfIYg6b-39">
          <mxGeometry width="50" height="50" relative="1" as="geometry">
            <mxPoint x="460" y="260" as="sourcePoint" />
            <mxPoint x="510" y="210" as="targetPoint" />
          </mxGeometry>
        </mxCell>
        <mxCell id="hoALELuz9ehoLUfIYg6b-43" value="index &amp;gt; 1" style="text;html=1;strokeColor=none;fillColor=none;align=center;verticalAlign=middle;whiteSpace=wrap;rounded=0;" vertex="1" parent="1">
          <mxGeometry x="280" y="330" width="60" height="30" as="geometry" />
        </mxCell>
        <mxCell id="hoALELuz9ehoLUfIYg6b-44" value="index = 0" style="text;html=1;strokeColor=none;fillColor=none;align=center;verticalAlign=middle;whiteSpace=wrap;rounded=0;" vertex="1" parent="1">
          <mxGeometry x="550" y="300" width="60" height="30" as="geometry" />
        </mxCell>
        <mxCell id="hoALELuz9ehoLUfIYg6b-45" value="EFFNET" style="text;html=1;strokeColor=none;fillColor=none;align=center;verticalAlign=middle;whiteSpace=wrap;rounded=0;" vertex="1" parent="1">
          <mxGeometry x="650" y="345" width="60" height="30" as="geometry" />
        </mxCell>
        <mxCell id="hoALELuz9ehoLUfIYg6b-47" value="ARTSEE - SERVER" style="text;html=1;strokeColor=none;fillColor=none;align=center;verticalAlign=middle;whiteSpace=wrap;rounded=0;" vertex="1" parent="1">
          <mxGeometry x="1530" y="160" width="130" height="30" as="geometry" />
        </mxCell>
        <mxCell id="hoALELuz9ehoLUfIYg6b-48" value="" style="endArrow=classic;html=1;rounded=0;exitX=1;exitY=0.5;exitDx=0;exitDy=0;entryX=0;entryY=0.5;entryDx=0;entryDy=0;" edge="1" parent="1" source="hoALELuz9ehoLUfIYg6b-39" target="hoALELuz9ehoLUfIYg6b-52">
          <mxGeometry width="50" height="50" relative="1" as="geometry">
            <mxPoint x="910" y="380" as="sourcePoint" />
            <mxPoint x="960" y="330" as="targetPoint" />
            <Array as="points">
              <mxPoint x="1270" y="360" />
              <mxPoint x="1270" y="240" />
            </Array>
          </mxGeometry>
        </mxCell>
        <mxCell id="hoALELuz9ehoLUfIYg6b-52" value="" style="rounded=1;whiteSpace=wrap;html=1;" vertex="1" parent="1">
          <mxGeometry x="1355" y="210" width="120" height="60" as="geometry" />
        </mxCell>
        <mxCell id="hoALELuz9ehoLUfIYg6b-53" value="INDEX SEARCHER" style="text;html=1;strokeColor=none;fillColor=none;align=center;verticalAlign=middle;whiteSpace=wrap;rounded=0;" vertex="1" parent="1">
          <mxGeometry x="1385" y="225" width="60" height="30" as="geometry" />
        </mxCell>
        <mxCell id="hoALELuz9ehoLUfIYg6b-54" value="RESNET EMBEDDING" style="text;html=1;strokeColor=none;fillColor=none;align=center;verticalAlign=middle;whiteSpace=wrap;rounded=0;" vertex="1" parent="1">
          <mxGeometry x="1000" y="330" width="60" height="30" as="geometry" />
        </mxCell>
        <mxCell id="hoALELuz9ehoLUfIYg6b-61" value="INDEX UPDATER" style="text;html=1;strokeColor=none;fillColor=none;align=center;verticalAlign=middle;whiteSpace=wrap;rounded=0;" vertex="1" parent="1">
          <mxGeometry x="1654" y="210" width="110" height="30" as="geometry" />
        </mxCell>
        <mxCell id="hoALELuz9ehoLUfIYg6b-64" value="" style="shape=parallelogram;perimeter=parallelogramPerimeter;whiteSpace=wrap;html=1;fixedSize=1;" vertex="1" parent="1">
          <mxGeometry x="1590" y="320" width="120" height="60" as="geometry" />
        </mxCell>
        <mxCell id="hoALELuz9ehoLUfIYg6b-65" value="" style="shape=parallelogram;perimeter=parallelogramPerimeter;whiteSpace=wrap;html=1;fixedSize=1;" vertex="1" parent="1">
          <mxGeometry x="1710" y="320" width="120" height="60" as="geometry" />
        </mxCell>
        <mxCell id="hoALELuz9ehoLUfIYg6b-66" value="DATA" style="text;html=1;strokeColor=none;fillColor=none;align=center;verticalAlign=middle;whiteSpace=wrap;rounded=0;" vertex="1" parent="1">
          <mxGeometry x="1620" y="340" width="60" height="30" as="geometry" />
        </mxCell>
        <mxCell id="hoALELuz9ehoLUfIYg6b-67" value="EMBS" style="text;html=1;strokeColor=none;fillColor=none;align=center;verticalAlign=middle;whiteSpace=wrap;rounded=0;" vertex="1" parent="1">
          <mxGeometry x="1740" y="340" width="60" height="30" as="geometry" />
        </mxCell>
        <mxCell id="hoALELuz9ehoLUfIYg6b-69" value="COMPARER" style="text;html=1;strokeColor=none;fillColor=none;align=center;verticalAlign=middle;whiteSpace=wrap;rounded=0;" vertex="1" parent="1">
          <mxGeometry x="1679" y="280" width="60" height="30" as="geometry" />
        </mxCell>
        <mxCell id="hoALELuz9ehoLUfIYg6b-70" value="" style="rounded=1;whiteSpace=wrap;html=1;" vertex="1" parent="1">
          <mxGeometry x="1650" y="510" width="120" height="60" as="geometry" />
        </mxCell>
        <mxCell id="hoALELuz9ehoLUfIYg6b-71" value="MUSEUM" style="shape=umlActor;verticalLabelPosition=bottom;verticalAlign=top;html=1;outlineConnect=0;" vertex="1" parent="1">
          <mxGeometry x="1990" y="20" width="30" height="60" as="geometry" />
        </mxCell>
        <mxCell id="hoALELuz9ehoLUfIYg6b-72" value="" style="rounded=0;whiteSpace=wrap;html=1;" vertex="1" parent="1">
          <mxGeometry x="1990" y="170" width="390" height="490" as="geometry" />
        </mxCell>
        <mxCell id="hoALELuz9ehoLUfIYg6b-73" value="ARTSEE INTERFACE" style="text;html=1;strokeColor=none;fillColor=none;align=center;verticalAlign=middle;whiteSpace=wrap;rounded=0;" vertex="1" parent="1">
          <mxGeometry x="2000" y="180" width="60" height="30" as="geometry" />
        </mxCell>
        <mxCell id="hoALELuz9ehoLUfIYg6b-74" value="" style="endArrow=classic;html=1;rounded=0;entryX=0.5;entryY=0;entryDx=0;entryDy=0;" edge="1" parent="1" target="hoALELuz9ehoLUfIYg6b-72">
          <mxGeometry width="50" height="50" relative="1" as="geometry">
            <mxPoint x="2030" y="40" as="sourcePoint" />
            <mxPoint x="2200" y="30" as="targetPoint" />
            <Array as="points">
              <mxPoint x="2185" y="40" />
            </Array>
          </mxGeometry>
        </mxCell>
        <mxCell id="hoALELuz9ehoLUfIYg6b-75" value="DATA INPUT: IMAGE, NAME, DATE,..." style="text;html=1;strokeColor=none;fillColor=none;align=left;verticalAlign=middle;whiteSpace=wrap;rounded=0;" vertex="1" parent="1">
          <mxGeometry x="2200" y="60" width="230" height="30" as="geometry" />
        </mxCell>
        <mxCell id="hoALELuz9ehoLUfIYg6b-76" value="High Quality Image of Artwork" style="text;html=1;strokeColor=none;fillColor=none;align=center;verticalAlign=middle;whiteSpace=wrap;rounded=0;" vertex="1" parent="1">
          <mxGeometry x="2068" y="230" width="60" height="80" as="geometry" />
        </mxCell>
        <mxCell id="hoALELuz9ehoLUfIYg6b-77" value="Other Data: &lt;br&gt;NAME ARTIST&lt;br&gt;NAME PAINTING: ENG - ORIGINAL&lt;br&gt;YEAR PAINTING&lt;br&gt;LOCATION PAINTING&lt;br&gt;EXPLANATION PAINTING" style="text;html=1;strokeColor=none;fillColor=none;align=center;verticalAlign=middle;whiteSpace=wrap;rounded=0;" vertex="1" parent="1">
          <mxGeometry x="2140" y="230" width="230" height="90" as="geometry" />
        </mxCell>
        <mxCell id="hoALELuz9ehoLUfIYg6b-78" value="" style="endArrow=classic;html=1;rounded=0;exitX=0.5;exitY=0;exitDx=0;exitDy=0;entryX=0.5;entryY=0;entryDx=0;entryDy=0;" edge="1" parent="1" source="hoALELuz9ehoLUfIYg6b-72" target="hoALELuz9ehoLUfIYg6b-76">
          <mxGeometry width="50" height="50" relative="1" as="geometry">
            <mxPoint x="2110" y="400" as="sourcePoint" />
            <mxPoint x="2160" y="350" as="targetPoint" />
          </mxGeometry>
        </mxCell>
        <mxCell id="hoALELuz9ehoLUfIYg6b-79" value="" style="endArrow=classic;html=1;rounded=0;entryX=0.5;entryY=0;entryDx=0;entryDy=0;exitX=0.5;exitY=0;exitDx=0;exitDy=0;" edge="1" parent="1" source="hoALELuz9ehoLUfIYg6b-72" target="hoALELuz9ehoLUfIYg6b-77">
          <mxGeometry width="50" height="50" relative="1" as="geometry">
            <mxPoint x="2180" y="170" as="sourcePoint" />
            <mxPoint x="2200" y="360" as="targetPoint" />
          </mxGeometry>
        </mxCell>
        <mxCell id="hoALELuz9ehoLUfIYg6b-80" value="EFFNET" style="rounded=1;whiteSpace=wrap;html=1;" vertex="1" parent="1">
          <mxGeometry x="2038" y="410" width="120" height="60" as="geometry" />
        </mxCell>
        <mxCell id="hoALELuz9ehoLUfIYg6b-81" value="" style="endArrow=classic;html=1;rounded=0;exitX=0.5;exitY=1;exitDx=0;exitDy=0;entryX=0.5;entryY=0;entryDx=0;entryDy=0;" edge="1" parent="1" source="hoALELuz9ehoLUfIYg6b-76" target="hoALELuz9ehoLUfIYg6b-80">
          <mxGeometry width="50" height="50" relative="1" as="geometry">
            <mxPoint x="2110" y="590" as="sourcePoint" />
            <mxPoint x="2160" y="540" as="targetPoint" />
          </mxGeometry>
        </mxCell>
        <mxCell id="hoALELuz9ehoLUfIYg6b-82" value="" style="rounded=1;whiteSpace=wrap;html=1;" vertex="1" parent="1">
          <mxGeometry x="2038" y="520" width="272" height="60" as="geometry" />
        </mxCell>
        <mxCell id="hoALELuz9ehoLUfIYg6b-83" value="KEY INDEX ASSIGNER" style="text;html=1;strokeColor=none;fillColor=none;align=center;verticalAlign=middle;whiteSpace=wrap;rounded=0;" vertex="1" parent="1">
          <mxGeometry x="2090" y="535" width="180" height="30" as="geometry" />
        </mxCell>
        <mxCell id="hoALELuz9ehoLUfIYg6b-84" value="" style="endArrow=classic;html=1;rounded=0;exitX=0.5;exitY=1;exitDx=0;exitDy=0;entryX=0.5;entryY=0;entryDx=0;entryDy=0;" edge="1" parent="1" source="hoALELuz9ehoLUfIYg6b-80" target="hoALELuz9ehoLUfIYg6b-82">
          <mxGeometry width="50" height="50" relative="1" as="geometry">
            <mxPoint x="2240" y="470" as="sourcePoint" />
            <mxPoint x="2290" y="420" as="targetPoint" />
          </mxGeometry>
        </mxCell>
        <mxCell id="hoALELuz9ehoLUfIYg6b-85" value="" style="endArrow=classic;html=1;rounded=0;entryX=0.5;entryY=0;entryDx=0;entryDy=0;exitX=0.5;exitY=1;exitDx=0;exitDy=0;" edge="1" parent="1" source="hoALELuz9ehoLUfIYg6b-77" target="hoALELuz9ehoLUfIYg6b-82">
          <mxGeometry width="50" height="50" relative="1" as="geometry">
            <mxPoint x="2220" y="460" as="sourcePoint" />
            <mxPoint x="2270" y="410" as="targetPoint" />
          </mxGeometry>
        </mxCell>
        <mxCell id="hoALELuz9ehoLUfIYg6b-86" value="" style="endArrow=classic;html=1;rounded=0;exitX=0.5;exitY=1;exitDx=0;exitDy=0;entryX=1;entryY=0.5;entryDx=0;entryDy=0;" edge="1" parent="1" source="hoALELuz9ehoLUfIYg6b-82" target="hoALELuz9ehoLUfIYg6b-68">
          <mxGeometry width="50" height="50" relative="1" as="geometry">
            <mxPoint x="2030" y="760" as="sourcePoint" />
            <mxPoint x="2080" y="710" as="targetPoint" />
            <Array as="points">
              <mxPoint x="2174" y="610" />
              <mxPoint x="2050" y="610" />
              <mxPoint x="1930" y="610" />
              <mxPoint x="1930" y="580" />
              <mxPoint x="1930" y="340" />
            </Array>
          </mxGeometry>
        </mxCell>
        <mxCell id="hoALELuz9ehoLUfIYg6b-87" value="EMBS RETRIEVER" style="text;html=1;strokeColor=none;fillColor=none;align=center;verticalAlign=middle;whiteSpace=wrap;rounded=0;" vertex="1" parent="1">
          <mxGeometry x="1680" y="525" width="60" height="30" as="geometry" />
        </mxCell>
        <mxCell id="hoALELuz9ehoLUfIYg6b-90" value="" style="endArrow=classic;html=1;rounded=0;exitX=0;exitY=0.5;exitDx=0;exitDy=0;entryX=1;entryY=0.5;entryDx=0;entryDy=0;" edge="1" parent="1" source="hoALELuz9ehoLUfIYg6b-70" target="hoALELuz9ehoLUfIYg6b-52">
          <mxGeometry width="50" height="50" relative="1" as="geometry">
            <mxPoint x="1610" y="540" as="sourcePoint" />
            <mxPoint x="1660" y="490" as="targetPoint" />
            <Array as="points">
              <mxPoint x="1540" y="540" />
              <mxPoint x="1540" y="240" />
            </Array>
          </mxGeometry>
        </mxCell>
        <mxCell id="hoALELuz9ehoLUfIYg6b-93" value="" style="shape=hexagon;perimeter=hexagonPerimeter2;whiteSpace=wrap;html=1;fixedSize=1;" vertex="1" parent="1">
          <mxGeometry x="1330" y="390" width="170" height="125" as="geometry" />
        </mxCell>
        <mxCell id="hoALELuz9ehoLUfIYg6b-94" value="" style="endArrow=classic;html=1;rounded=0;exitX=0.5;exitY=1;exitDx=0;exitDy=0;entryX=0.5;entryY=0;entryDx=0;entryDy=0;" edge="1" parent="1" source="hoALELuz9ehoLUfIYg6b-52" target="hoALELuz9ehoLUfIYg6b-93">
          <mxGeometry width="50" height="50" relative="1" as="geometry">
            <mxPoint x="1380" y="390" as="sourcePoint" />
            <mxPoint x="1430" y="340" as="targetPoint" />
          </mxGeometry>
        </mxCell>
        <mxCell id="hoALELuz9ehoLUfIYg6b-95" value="ID OF CLOSEST IMAGE" style="text;html=1;strokeColor=none;fillColor=none;align=center;verticalAlign=middle;whiteSpace=wrap;rounded=0;" vertex="1" parent="1">
          <mxGeometry x="1415" y="315" width="60" height="30" as="geometry" />
        </mxCell>
        <mxCell id="hoALELuz9ehoLUfIYg6b-98" value="DATA RETRIEVER" style="text;html=1;strokeColor=none;fillColor=none;align=center;verticalAlign=middle;whiteSpace=wrap;rounded=0;" vertex="1" parent="1">
          <mxGeometry x="1385" y="438" width="60" height="30" as="geometry" />
        </mxCell>
        <mxCell id="hoALELuz9ehoLUfIYg6b-101" value="" style="endArrow=classic;html=1;rounded=0;exitX=0.5;exitY=1;exitDx=0;exitDy=0;entryX=1;entryY=0.5;entryDx=0;entryDy=0;" edge="1" parent="1" source="hoALELuz9ehoLUfIYg6b-68" target="hoALELuz9ehoLUfIYg6b-93">
          <mxGeometry width="50" height="50" relative="1" as="geometry">
            <mxPoint x="1440" y="600" as="sourcePoint" />
            <mxPoint x="1490" y="550" as="targetPoint" />
            <Array as="points">
              <mxPoint x="1710" y="453" />
            </Array>
          </mxGeometry>
        </mxCell>
        <mxCell id="hoALELuz9ehoLUfIYg6b-104" value="" style="ellipse;shape=cloud;whiteSpace=wrap;html=1;" vertex="1" parent="1">
          <mxGeometry x="244" y="413" width="120" height="80" as="geometry" />
        </mxCell>
        <mxCell id="hoALELuz9ehoLUfIYg6b-105" value="" style="endArrow=classic;html=1;rounded=0;exitX=0;exitY=0.5;exitDx=0;exitDy=0;entryX=0.875;entryY=0.5;entryDx=0;entryDy=0;entryPerimeter=0;" edge="1" parent="1" source="hoALELuz9ehoLUfIYg6b-93" target="hoALELuz9ehoLUfIYg6b-104">
          <mxGeometry width="50" height="50" relative="1" as="geometry">
            <mxPoint x="730" y="780" as="sourcePoint" />
            <mxPoint x="780" y="730" as="targetPoint" />
          </mxGeometry>
        </mxCell>
        <mxCell id="hoALELuz9ehoLUfIYg6b-106" value="PAINTING WITH PAITINGS DATA" style="text;html=1;strokeColor=none;fillColor=none;align=center;verticalAlign=middle;whiteSpace=wrap;rounded=0;" vertex="1" parent="1">
          <mxGeometry x="880" y="425" width="250" height="30" as="geometry" />
        </mxCell>
        <mxCell id="hoALELuz9ehoLUfIYg6b-107" value="DISPLAY" style="text;html=1;strokeColor=none;fillColor=none;align=center;verticalAlign=middle;whiteSpace=wrap;rounded=0;" vertex="1" parent="1">
          <mxGeometry x="274" y="438" width="60" height="30" as="geometry" />
        </mxCell>
        <mxCell id="hoALELuz9ehoLUfIYg6b-108" value="Actor" style="shape=umlActor;verticalLabelPosition=bottom;verticalAlign=top;html=1;outlineConnect=0;" vertex="1" parent="1">
          <mxGeometry x="40" y="413" width="30" height="60" as="geometry" />
        </mxCell>
        <mxCell id="hoALELuz9ehoLUfIYg6b-109" value="" style="endArrow=none;dashed=1;html=1;dashPattern=1 3;strokeWidth=2;rounded=0;entryX=0.07;entryY=0.4;entryDx=0;entryDy=0;entryPerimeter=0;" edge="1" parent="1" target="hoALELuz9ehoLUfIYg6b-104">
          <mxGeometry width="50" height="50" relative="1" as="geometry">
            <mxPoint x="80" y="440" as="sourcePoint" />
            <mxPoint x="170" y="510" as="targetPoint" />
          </mxGeometry>
        </mxCell>
      </root>
    </mxGraphModel>
  </diagram>
</mxfile>
